<svg width="177" height="177" viewBox="0 0 177 177" fill="none" xmlns="http://www.w3.org/2000/svg">
<path d="M88.75 16.4548C112.059 16.4548 115.237 16.4548 124.773 16.4548C133.248 16.4548 137.486 18.5738 140.665 19.6333C144.903 21.7523 148.081 22.8118 151.26 25.9902C154.438 29.1687 156.557 32.3471 157.617 36.5851C158.676 39.7636 159.736 44.0015 160.795 52.4774C160.795 62.0128 160.795 64.1318 160.795 88.5C160.795 112.868 160.795 114.987 160.795 124.523C160.795 132.998 158.676 137.236 157.617 140.415C155.498 144.653 154.438 147.831 151.26 151.01C148.081 154.188 144.903 156.307 140.665 157.367C137.486 158.426 133.248 159.486 124.773 160.545C115.237 160.545 113.118 160.545 88.75 160.545C64.3818 160.545 62.2628 160.545 52.7274 160.545C44.2515 160.545 40.0136 158.426 36.8351 157.367C32.5971 155.248 29.4187 154.188 26.2402 151.01C23.0618 147.831 20.9428 144.653 19.8833 140.415C18.8238 137.236 17.7643 132.998 16.7048 124.523C16.7048 114.987 16.7048 112.868 16.7048 88.5C16.7048 64.1318 16.7048 62.0128 16.7048 52.4774C16.7048 44.0015 18.8238 39.7636 19.8833 36.5851C22.0023 32.3471 23.0618 29.1687 26.2402 25.9902C29.4187 22.8118 32.5971 20.6928 36.8351 19.6333C40.0136 18.5738 44.2515 17.5143 52.7274 16.4548C62.2628 16.4548 65.4413 16.4548 88.75 16.4548ZM88.75 0.5625C64.3818 0.5625 62.2628 0.5625 52.7274 0.5625C43.192 0.5625 36.8351 2.68148 31.5377 4.80046C26.2402 6.91943 20.9428 10.0979 15.6453 15.3953C10.3479 20.6928 8.22892 24.9307 5.05046 31.2877C2.93148 36.5851 1.87199 42.942 0.8125 52.4774C0.8125 62.0128 0.8125 65.1913 0.8125 88.5C0.8125 112.868 0.8125 114.987 0.8125 124.523C0.8125 134.058 2.93148 140.415 5.05046 145.712C7.16943 151.01 10.3479 156.307 15.6453 161.605C20.9428 166.902 25.1807 169.021 31.5377 172.2C36.8351 174.319 43.192 175.378 52.7274 176.437C62.2628 176.437 65.4413 176.437 88.75 176.437C112.059 176.437 115.237 176.437 124.773 176.437C134.308 176.437 140.665 174.319 145.962 172.2C151.26 170.081 156.557 166.902 161.855 161.605C167.152 156.307 169.271 152.069 172.45 145.712C174.569 140.415 175.628 134.058 176.687 124.523C176.687 114.987 176.687 111.809 176.687 88.5C176.687 65.1913 176.687 62.0128 176.687 52.4774C176.687 42.942 174.569 36.5851 172.45 31.2877C170.331 25.9902 167.152 20.6928 161.855 15.3953C156.557 10.0979 152.319 7.97892 145.962 4.80046C140.665 2.68148 134.308 1.62199 124.773 0.5625C115.237 0.5625 113.118 0.5625 88.75 0.5625Z" fill="#D9D9D9"/>
<path d="M88.75 42.942C63.3223 42.942 43.192 63.0723 43.192 88.5C43.192 113.928 63.3223 134.058 88.75 134.058C114.178 134.058 134.308 113.928 134.308 88.5C134.308 63.0723 114.178 42.942 88.75 42.942ZM88.75 118.166C72.8577 118.166 59.0843 105.452 59.0843 88.5C59.0843 72.6077 71.7982 58.8343 88.75 58.8343C104.642 58.8343 118.416 71.5482 118.416 88.5C118.416 104.392 104.642 118.166 88.75 118.166Z" fill="#D9D9D9"/>
<path d="M135.367 52.4774C141.219 52.4774 145.962 47.7339 145.962 41.8825C145.962 36.0311 141.219 31.2877 135.367 31.2877C129.516 31.2877 124.773 36.0311 124.773 41.8825C124.773 47.7339 129.516 52.4774 135.367 52.4774Z" fill="#D9D9D9"/>
</svg>
