<svg width="202" height="201" viewBox="0 0 202 201" fill="none" xmlns="http://www.w3.org/2000/svg">
<path d="M175.939 12.5625H26.061C18.8886 12.5625 13.0625 18.2143 13.0625 25.158V175.842C13.0625 182.809 18.8886 188.437 26.061 188.437H175.939C183.111 188.437 188.937 182.786 188.937 175.842V25.158C188.937 18.1912 183.111 12.5625 175.939 12.5625ZM66.3798 159.809H39.8256V80.3842H66.3798V159.809ZM53.1027 69.5419H52.9402C44.0269 69.5419 38.2704 63.4518 38.2704 55.8161C38.2704 48.1804 44.2126 42.0903 53.2884 42.0903C62.3641 42.0903 67.9582 48.0189 68.1438 55.8161C68.1438 63.4288 62.3873 69.5419 53.1259 69.5419H53.1027ZM162.174 159.809H135.62V117.317C135.62 106.636 131.767 99.3466 122.157 99.3466C114.823 99.3466 110.459 104.26 108.532 109.012C107.836 110.719 107.65 113.072 107.65 115.448V159.809H81.096C81.096 159.809 81.4441 87.8353 81.096 80.3842H107.65V91.6417C111.178 86.2205 117.492 78.5387 131.581 78.5387C149.06 78.5387 162.174 89.8884 162.174 114.295V159.832V159.809Z" fill="#D9D9D9"/>
</svg>
